<mxfile host="Electron" modified="2023-04-24T08:46:11.875Z" agent="Mozilla/5.0 (X11; Linux x86_64) AppleWebKit/537.36 (KHTML, like Gecko) draw.io/21.2.1 Chrome/112.0.5615.87 Electron/24.1.2 Safari/537.36" etag="dhyXzz4gx1uAI6Rvkpb2" version="21.2.1" type="device">
  <diagram name="Page-1" id="0xaKvcrYNr95pNH14Osg">
    <mxGraphModel dx="2284" dy="969" grid="1" gridSize="10" guides="1" tooltips="1" connect="1" arrows="1" fold="1" page="1" pageScale="1" pageWidth="850" pageHeight="1100" math="0" shadow="0">
      <root>
        <mxCell id="0" />
        <mxCell id="1" parent="0" />
        <mxCell id="Im9fZA_TLzj1qI4OMQGq-4" value="" style="edgeStyle=orthogonalEdgeStyle;rounded=0;orthogonalLoop=1;jettySize=auto;html=1;fontFamily=Computer Modern;" parent="1" source="Im9fZA_TLzj1qI4OMQGq-2" target="Im9fZA_TLzj1qI4OMQGq-3" edge="1">
          <mxGeometry relative="1" as="geometry" />
        </mxCell>
        <mxCell id="Im9fZA_TLzj1qI4OMQGq-2" value="Source code" style="ellipse;whiteSpace=wrap;html=1;fontFamily=Computer Modern;" parent="1" vertex="1">
          <mxGeometry x="-280" y="340" width="140" height="80" as="geometry" />
        </mxCell>
        <mxCell id="nkXtuYNd5NuE9keqcuQ0-2" value="" style="edgeStyle=orthogonalEdgeStyle;rounded=0;orthogonalLoop=1;jettySize=auto;html=1;fontFamily=Computer Modern;" parent="1" source="Im9fZA_TLzj1qI4OMQGq-3" target="nkXtuYNd5NuE9keqcuQ0-1" edge="1">
          <mxGeometry relative="1" as="geometry" />
        </mxCell>
        <mxCell id="Im9fZA_TLzj1qI4OMQGq-3" value="Document index" style="ellipse;whiteSpace=wrap;html=1;fontFamily=Computer Modern;" parent="1" vertex="1">
          <mxGeometry x="-110" y="340" width="140" height="80" as="geometry" />
        </mxCell>
        <mxCell id="Im9fZA_TLzj1qI4OMQGq-8" value="" style="edgeStyle=orthogonalEdgeStyle;rounded=0;orthogonalLoop=1;jettySize=auto;html=1;fontFamily=Computer Modern;" parent="1" source="Im9fZA_TLzj1qI4OMQGq-5" target="Im9fZA_TLzj1qI4OMQGq-7" edge="1">
          <mxGeometry relative="1" as="geometry" />
        </mxCell>
        <mxCell id="Im9fZA_TLzj1qI4OMQGq-5" value="Fingerprint" style="ellipse;whiteSpace=wrap;html=1;fontFamily=Computer Modern;" parent="1" vertex="1">
          <mxGeometry x="230" y="340" width="140" height="80" as="geometry" />
        </mxCell>
        <mxCell id="Im9fZA_TLzj1qI4OMQGq-10" value="" style="edgeStyle=orthogonalEdgeStyle;rounded=0;orthogonalLoop=1;jettySize=auto;html=1;fontFamily=Computer Modern;" parent="1" source="Im9fZA_TLzj1qI4OMQGq-7" target="Im9fZA_TLzj1qI4OMQGq-9" edge="1">
          <mxGeometry relative="1" as="geometry" />
        </mxCell>
        <mxCell id="Im9fZA_TLzj1qI4OMQGq-7" value="Suffix array" style="ellipse;whiteSpace=wrap;html=1;fontFamily=Computer Modern;" parent="1" vertex="1">
          <mxGeometry x="230" y="460" width="140" height="80" as="geometry" />
        </mxCell>
        <mxCell id="Im9fZA_TLzj1qI4OMQGq-12" value="" style="edgeStyle=orthogonalEdgeStyle;rounded=0;orthogonalLoop=1;jettySize=auto;html=1;fontFamily=Computer Modern;" parent="1" source="Im9fZA_TLzj1qI4OMQGq-9" target="Im9fZA_TLzj1qI4OMQGq-11" edge="1">
          <mxGeometry relative="1" as="geometry" />
        </mxCell>
        <mxCell id="Im9fZA_TLzj1qI4OMQGq-9" value="Clone extraction" style="ellipse;whiteSpace=wrap;html=1;fontFamily=Computer Modern;" parent="1" vertex="1">
          <mxGeometry x="60" y="460" width="140" height="80" as="geometry" />
        </mxCell>
        <mxCell id="Im9fZA_TLzj1qI4OMQGq-18" value="" style="edgeStyle=orthogonalEdgeStyle;rounded=0;orthogonalLoop=1;jettySize=auto;html=1;fontFamily=Computer Modern;" parent="1" source="Im9fZA_TLzj1qI4OMQGq-11" target="Im9fZA_TLzj1qI4OMQGq-17" edge="1">
          <mxGeometry relative="1" as="geometry" />
        </mxCell>
        <mxCell id="Im9fZA_TLzj1qI4OMQGq-11" value="Source-mapping" style="ellipse;whiteSpace=wrap;html=1;fontFamily=Computer Modern;" parent="1" vertex="1">
          <mxGeometry x="-110" y="460" width="140" height="80" as="geometry" />
        </mxCell>
        <mxCell id="Im9fZA_TLzj1qI4OMQGq-17" value="Code clones" style="ellipse;whiteSpace=wrap;html=1;fontFamily=Computer Modern;" parent="1" vertex="1">
          <mxGeometry x="-280" y="460" width="140" height="80" as="geometry" />
        </mxCell>
        <mxCell id="nkXtuYNd5NuE9keqcuQ0-3" style="edgeStyle=orthogonalEdgeStyle;rounded=0;orthogonalLoop=1;jettySize=auto;html=1;exitX=1;exitY=0.5;exitDx=0;exitDy=0;fontFamily=Computer Modern;" parent="1" source="nkXtuYNd5NuE9keqcuQ0-1" target="Im9fZA_TLzj1qI4OMQGq-5" edge="1">
          <mxGeometry relative="1" as="geometry" />
        </mxCell>
        <mxCell id="nkXtuYNd5NuE9keqcuQ0-1" value="Fragment selection" style="ellipse;whiteSpace=wrap;html=1;fontFamily=Computer Modern;" parent="1" vertex="1">
          <mxGeometry x="60" y="340" width="140" height="80" as="geometry" />
        </mxCell>
      </root>
    </mxGraphModel>
  </diagram>
</mxfile>
